HIERARCHY
ROOT root
{
	OFFSET 0.000000 0.000000 0.000000
	CHANNELS 6 Xposition Yposition Zposition Zrotation Yrotation Xrotation
	JOINT lhip
	{
		OFFSET 0.058581 -0.082280 -0.017664
		CHANNELS 3 Zrotation Yrotation Xrotation
		JOINT lknee
		{
			OFFSET 0.043451 -0.386469 0.008037
			CHANNELS 3 Zrotation Yrotation Xrotation
			JOINT lankle
			{
				OFFSET -0.014790 -0.426874 -0.037428
				CHANNELS 3 Zrotation Yrotation Xrotation
				JOINT ltoe
				{
					OFFSET 0.041054 -0.060286 0.122042
					CHANNELS 3 Zrotation Yrotation Xrotation
					End Site
					{
						OFFSET 0.000000 0.000000 0.000000
					}
				}
			}
		}
	}
	JOINT rhip
	{
		OFFSET -0.060310 -0.090513 -0.013543
		CHANNELS 3 Zrotation Yrotation Xrotation
		JOINT rknee
		{
			OFFSET -0.043257 -0.383688 -0.004843
			CHANNELS 3 Zrotation Yrotation Xrotation
			JOINT rankle
			{
				OFFSET 0.019056 -0.420046 -0.034562
				CHANNELS 3 Zrotation Yrotation Xrotation
				JOINT rtoe
				{
					OFFSET -0.034840 -0.062106 0.130323
					CHANNELS 3 Zrotation Yrotation Xrotation
					End Site
					{
						OFFSET 0.000000 0.000000 0.000000
					}
				}
			}
		}
	}
	JOINT lowerback
	{
		OFFSET 0.004439 0.124404 -0.038385
		CHANNELS 3 Zrotation Yrotation Xrotation
		JOINT upperback
		{
			OFFSET 0.004488 0.137956 0.026820
			CHANNELS 3 Zrotation Yrotation Xrotation
			JOINT chest
			{
				OFFSET -0.002265 0.056032 0.002855
				CHANNELS 3 Zrotation Yrotation Xrotation
				JOINT lowerneck
				{
					OFFSET -0.013390 0.211636 -0.033468
					CHANNELS 3 Zrotation Yrotation Xrotation
					JOINT upperneck
					{
						OFFSET 0.010113 0.088937 0.050410
						CHANNELS 3 Zrotation Yrotation Xrotation
						End Site
						{
							OFFSET 0.000000 0.000000 0.000000
						}
					}
				}
				JOINT lclavicle
				{
					OFFSET 0.071702 0.114000 -0.018898
					CHANNELS 3 Zrotation Yrotation Xrotation
					JOINT lshoulder
					{
						OFFSET 0.122921 0.045205 -0.019046
						CHANNELS 3 Zrotation Yrotation Xrotation
						JOINT lelbow
						{
							OFFSET 0.255332 -0.015649 -0.022946
							CHANNELS 3 Zrotation Yrotation Xrotation
							JOINT lwrist
							{
								OFFSET 0.265709 0.012698 -0.007375
								CHANNELS 3 Zrotation Yrotation Xrotation
								End Site
								{
									OFFSET 0.000000 0.000000 0.000000
								}
							}
						}
					}
				}
				JOINT rclavicle
				{
					OFFSET -0.082954 0.112472 -0.023707
					CHANNELS 3 Zrotation Yrotation Xrotation
					JOINT rshoulder
					{
						OFFSET -0.113228 0.046853 -0.008472
						CHANNELS 3 Zrotation Yrotation Xrotation
						JOINT relbow
						{
							OFFSET -0.260127 -0.014369 -0.031269
							CHANNELS 3 Zrotation Yrotation Xrotation
							JOINT rwrist
							{
								OFFSET -0.269108 0.006794 -0.006027
								CHANNELS 3 Zrotation Yrotation Xrotation
								End Site
								{
									OFFSET 0.000000 0.000000 0.000000
								}
							}
						}
					}
				}
			}
		}
	}
}
MOTION
Frames: 5
Frame Time: 0.033333
-0.013161 -1.307414 0.991500 -170.520287 -1.829881 96.792752 -0.322542 0.523124 -4.589487 -2.337773 -6.050557 -1.678736 2.688923 13.586410 -13.646047 0.000000 -0.000000 0.000000 -7.621393 -10.900354 -8.757454 2.766276 -13.617536 8.070178 2.478947 -4.951772 -7.625255 0.000000 -0.000000 0.000000 -0.091830 5.843445 -17.448159 0.311016 -2.589682 22.934814 -2.262413 1.737135 -9.681668 -6.246713 23.007365 5.318969 1.891282 30.069685 9.727344 -36.923114 -5.169747 -0.352213 -51.492338 -1.792325 20.939600 12.868067 -22.201468 -10.309373 -7.128781 -12.031903 4.730892 34.227407 8.896743 6.541361 51.994671 7.109867 15.042677 -13.023621 13.981612 -25.095388 6.842361 12.481374 -9.428791 
-0.013440 -1.307472 0.991247 -170.521666 -1.770885 96.630424 -0.225783 0.514853 -4.412377 -2.373486 -6.444948 -1.754463 2.873217 13.995513 -13.343936 0.000000 -0.000000 0.000000 -7.607309 -10.770232 -8.511594 2.964949 -12.675778 7.811825 3.292779 -6.104062 -7.856876 0.000000 -0.000000 0.000000 0.176131 5.715117 -16.521963 -0.033520 -2.486870 21.041492 -2.132253 2.042482 -8.387245 -6.387264 22.610135 4.469742 2.394248 30.157680 10.739773 -37.054893 -5.306750 -0.573761 -52.231286 -3.803680 20.898830 12.840858 -17.143104 -10.395981 -1.477793 -11.609467 6.440920 33.641294 8.889026 5.884006 52.878910 6.636614 15.012657 -13.288651 14.271211 -24.111098 6.016694 12.804553 -10.364142 
-0.013469 -1.307260 0.991499 -170.387564 -1.681325 96.567447 -0.083969 0.542018 -4.402490 -2.447609 -6.763640 -1.686985 3.061168 14.193837 -13.286080 0.000000 -0.000000 0.000000 -7.432726 -10.903487 -8.380490 2.970477 -12.350007 7.665380 3.272620 -6.363602 -7.941561 0.000000 -0.000000 0.000000 0.315378 5.491139 -16.385385 -0.168552 -2.559669 20.773309 -2.144785 2.147778 -8.258501 -6.196585 22.717622 4.382887 2.356317 30.174131 10.896716 -37.192388 -5.014521 -0.402188 -51.798267 -3.929145 19.882233 12.016699 -17.523650 -10.983725 1.904909 -10.018795 11.379118 33.530033 8.874848 6.054007 53.108572 6.683889 14.567675 -13.277630 14.546595 -23.730311 5.705189 12.494283 -10.370590 
-0.012951 -1.307842 0.992105 -170.454954 -1.610194 96.693724 -0.077469 0.958808 -4.608289 -2.427751 -6.900040 -1.389790 2.896373 13.748851 -13.728067 0.000000 -0.000000 0.000000 -7.226897 -10.623647 -8.450123 2.929605 -12.197481 7.501838 3.354483 -6.713332 -7.936323 0.000000 -0.000000 0.000000 0.172475 5.589560 -16.855628 0.074290 -2.794572 21.703789 -2.260040 2.255392 -9.105943 -6.578905 22.814639 4.469968 2.854435 30.129915 10.962968 -36.736367 -5.315431 0.219309 -51.373750 -1.944737 20.490926 9.424150 -21.238132 -2.928045 -13.634093 -6.717950 10.357770 33.611384 8.913018 6.734873 52.619063 7.283817 12.841596 -12.769396 14.095194 -25.178026 9.146788 12.024726 -7.023795 
-0.012846 -1.307804 0.992122 -170.527595 -1.615831 96.701289 -0.093558 1.002742 -4.596523 -2.432821 -6.826989 -1.422464 2.888419 13.734088 -13.704061 0.000000 -0.000000 0.000000 -7.245202 -10.596155 -8.489767 2.918635 -12.249989 7.551387 3.401955 -6.642451 -7.910640 0.000000 -0.000000 0.000000 0.153958 5.554918 -16.893047 0.080633 -2.792076 21.765469 -2.266746 2.292202 -9.153323 -6.614944 22.806656 4.484476 2.828863 30.108529 10.969826 -36.718317 -5.294100 0.227458 -51.341597 -1.975188 20.563047 9.380320 -21.349771 -2.972788 -13.474139 -7.015953 10.282675 33.672575 8.920513 6.781343 52.505574 7.317150 12.886770 -12.710865 14.042614 -25.262151 9.069701 11.991495 -7.069229 
